<svg id="Calque_1" data-name="Calque 1" xmlns="http://www.w3.org/2000/svg" viewBox="0 0 927.31 940.37">
  <defs>
    <style>
      .cls-1 {
        fill: #00cf23;
      }
    </style>
  </defs>
  <path class="cls-1" d="M812.09,962.11A1132.43,1132.43,0,0,0,643.67,932.5h0a.21.21,0,0,0-.11,0l-.27,0-.13,0h0c-27.67-2.61-46-3-52.58-3.14-12,.17-63.22,1.57-138.29,15-24.74,4.53-52.25,10.28-81.7,17.59A36,36,0,0,0,344.08,1003c2.27,13.06,4,25.25,5.23,36.75.87,8.88,1.39,17.41,1.56,25.26a4.51,4.51,0,0,0,1.2,2.78,4.34,4.34,0,0,0,.72.7,4.56,4.56,0,0,0,3.66.69c17.07-4.53,95.1-23.86,181.15-30.3h0c16-1.22,32.39-1.92,48.76-2.09h10.27c103.47.87,209.54,27.17,229.75,32.39.34,0,.69,0,.69.18a4.33,4.33,0,0,0,1.59-.31,4.42,4.42,0,0,0,1.57-.73,4,4,0,0,0,1.74-3.31c.35-18,2.62-38.84,6.8-61.83A35.94,35.94,0,0,0,812.09,962.11Z" transform="translate(-127.24 -129.03)"/>
  <path class="cls-1" d="M879.32,885.29c0,.18-.17.36-.35.7v-.17C879.15,885.45,879.15,885.29,879.32,885.29Z" transform="translate(-127.24 -129.03)"/>
  <path class="cls-1" d="M1050,396l-.18-.68c-.21-.77-.45-1.54-.67-2.31s-.43-1.46-.66-2.18c0-.17-.11-.34-.16-.51a145.29,145.29,0,0,0-12.29-27.9c-11.84-20.55-28.74-39-50.51-55-21.6-15.86-46.68-28.39-74.72-37.1A30.43,30.43,0,0,0,907,269.1h-.82a310.5,310.5,0,0,0-87-12.19c-3.83,0-7.66,0-11.5.18a35.15,35.15,0,0,1-31.87-17.42,226.78,226.78,0,0,0-79.74-80.16A219.25,219.25,0,0,0,584.27,129,222.42,222.42,0,0,0,392.85,239.44a22.77,22.77,0,0,1-1.74,2.61,112.85,112.85,0,0,0-17.59,12.89,39.4,39.4,0,0,1-11.15,1.75h-.17a305.44,305.44,0,0,0-91.45,13.58c-28,8.72-53.11,21.26-74.71,37.11s-38.5,34.49-50.34,55c-12.19,21.42-18.46,44.07-18.46,67.41a130.57,130.57,0,0,0,7.14,42.32,147.36,147.36,0,0,0,20,38.48,375.75,375.75,0,0,1,35.18,59.57c10.8,23,24.21,52.27,38.84,85.53,2.62,5.93,5.4,12,8,18.29h.05c26.63,61.8,55.68,134.71,77.79,204.32,4.17,13.42,8.18,26.48,11.84,39.54a34.91,34.91,0,0,0,16.54,21.25,36.14,36.14,0,0,0,26.82,3.66C392,937,424.37,929.55,461.3,923.11c40.22-7,85.73-12.37,128.89-12.37h1.57c18.64,0,37.6,1,56.43,2.79,65.32,5.92,128.54,20.19,165.12,29.61a31.43,31.43,0,0,0,8.89,1.22,35.52,35.52,0,0,0,34.31-26c2.26-7.69,4.53-15.7,7-23.54,0-.08,0-.16.07-.25l.1-.09h-.07c1.18-3.87,2.37-7.76,3.6-11.65C886.05,822.73,910.33,760,933.69,704c21.4-51.21,42.13-96.67,57.28-129.06.34-.72.64-1.45.93-2.19,0,0,0-.08,0-.13.24-.62.46-1.24.67-1.87a2.67,2.67,0,0,1,.09-.26c0-.14.07-.28.12-.41.09-.31.18-.62.26-.93s.2-.74.29-1.12c0-.18.09-.36.13-.54.12-.54.23-1.09.32-1.63v-.05a35.78,35.78,0,0,0-18.52-37.72,37.7,37.7,0,0,0-6.3-2.76c-14.28-4.53-28.39-8.71-42.67-12.72-5.4-1.39-10.63-2.78-16-4.17v0a1109.57,1109.57,0,0,0-159.72-29.17c-58.35-6.11-99.46-5.23-114.44-4.54a.2.2,0,0,1-.13-.06.17.17,0,0,1,.15-.13c91.79-15.49,200.13,1,278.69,19h0v0c16.89,4,32.39,7.84,46.15,11.5,12.87,3.5,24,6.63,33.27,9.41a33.27,33.27,0,0,0,5.75,1.23v0h0a35.71,35.71,0,0,0,35.35-17.42,117.4,117.4,0,0,0,6.45-12.2,130.49,130.49,0,0,0,12.71-56.22A129.13,129.13,0,0,0,1050,396Z" transform="translate(-127.24 -129.03)"/>
</svg>
